<mxfile host="app.diagrams.net" modified="2024-03-05T11:11:42.003Z" agent="Mozilla/5.0 (Macintosh; Intel Mac OS X 10_15_7) AppleWebKit/605.1.15 (KHTML, like Gecko) Version/16.1 Safari/605.1.15" version="24.0.1" etag="5YvK6rC03jTUoVjH2huo" type="github">
  <diagram name="Page-1" id="EsWyl4YC9lc-ML-dZlw3">
    <mxGraphModel>
      <root>
        <mxCell id="0" />
        <mxCell id="1" parent="0" />
      </root>
    </mxGraphModel>
  </diagram>
</mxfile>
